<svg xmlns="http://www.w3.org/2000/svg" viewBox="0 0 120 120" width="128" height="128">
  <path fill="#1A1A1A" d="M40,20 C40,20 40,55 40,55 C40,55 70,55 70,55 C70,55 70,25 70,25 C70,15 80,15 85,20 C90,25 90,35 90,40 C90,55 80,65 70,65 C70,65 40,65 40,65 C40,65 40,90 40,90 C40,90 30,90 30,90 C30,90 30,20 30,20 C30,20 40,20 40,20 Z M80,90 C80,90 80,65 80,65 C80,65 70,65 70,65 C70,65 80,65 80,65 C85,65 95,60 95,45 C95,30 85,25 80,25 C75,25 70,30 70,35 C70,35 70,55 70,55 C80,55 80,55 80,55 C80,55 80,90 80,90 Z"/>
  
  <path fill="none" stroke="#1A1A1A" stroke-width="6" stroke-linecap="round" d="M75,95 C75,105 65,110 60,105"/>
  
  <rect x="25" y="15" width="15" height="5" fill="#1A1A1A"/>
  <rect x="25" y="90" width="15" height="5" fill="#1A1A1A"/>
  <rect x="75" y="90" width="10" height="5" fill="#1A1A1A"/>
</svg>